<svg width="474" height="96" viewBox="0 0 474 96" fill="none" xmlns="http://www.w3.org/2000/svg">
<rect width="473.734" height="96" rx="8" fill="white"/>
<path fill-rule="evenodd" clip-rule="evenodd" d="M361.5 63.6396L361.499 63.6381H370.715L376.377 52.254L382.039 63.6381H393.239L376.376 31.0811L360.37 61.9895L354.224 53.016C358.019 51.186 360.384 48.0167 360.384 43.4641V43.3744C360.384 40.1612 359.402 37.8398 357.527 35.9649C355.34 33.7778 351.814 32.3942 346.279 32.3942H331.014V63.6396H341.459V54.7121H343.69L349.582 63.6396H361.5ZM425.91 31.0811L409.05 63.6381H420.25L425.911 52.254L431.573 63.6381H442.773L425.91 31.0811ZM401.153 64.9192L418.014 32.3621H406.814L401.152 43.7462L395.49 32.3621H384.291L401.153 64.9192ZM345.967 47.2579C348.466 47.2579 349.984 46.1421 349.984 44.2228V44.1332C349.984 42.1247 348.421 41.1427 346.012 41.1427H341.459V47.2579H345.967ZM308.677 41.232H299.482V32.3942H328.317V41.232H319.122V63.6396H308.677V41.232ZM274.031 52.3019L268.451 58.9527C272.424 62.4348 278.137 64.2198 284.475 64.2198C292.867 64.2198 298.268 60.2024 298.268 53.6405V53.5516C298.268 47.2579 292.912 44.9366 284.922 43.464C281.619 42.8384 280.771 42.3036 280.771 41.4552V41.3659C280.771 40.6071 281.485 40.0715 283.047 40.0715C285.948 40.0715 289.475 41.0088 292.421 43.1512L297.51 36.0991C293.894 33.2422 289.43 31.8136 283.405 31.8136C274.789 31.8136 270.147 36.4115 270.147 42.3478V42.4375C270.147 49.0432 276.307 51.0525 283.315 52.48C286.663 53.1499 287.644 53.6405 287.644 54.5336V54.6232C287.644 55.4709 286.841 55.9615 284.966 55.9615C281.306 55.9615 277.423 54.891 274.031 52.3019Z" fill="#FC5200"/>
<path d="M235.838 62.3629V42.9248H239.836V50.5071H248.273V42.9248H252.271V62.3629H248.273V54.0362H239.836V62.3629H235.838Z" fill="black"/>
<path d="M221.919 62.3629V46.4264H215.688V42.9248H232.175V46.4264H225.917V62.3629H221.919Z" fill="black"/>
<path d="M208.039 62.3629V42.9248H212.037V62.3629H208.039Z" fill="black"/>
<path d="M184.205 62.3629L179.076 42.9248H183.295L185.5 53.4021C185.776 54.8083 186.024 55.9387 186.272 57.6757H186.383C186.658 56.2144 186.824 55.3045 187.265 53.3745L189.746 42.9248H193.937L196.419 53.3745C196.86 55.3045 197.025 56.2144 197.301 57.6757H197.411C197.66 55.9387 197.908 54.8083 198.183 53.4021L200.417 42.9248H204.608L199.479 62.3629H195.316L192.862 51.9959C192.531 50.5346 192.311 49.5696 191.897 47.5569H191.787C191.373 49.5696 191.153 50.5346 190.822 51.9959L188.368 62.3629H184.205Z" fill="black"/>
<path d="M159.991 62.3629V46.4264H153.76V42.9248H170.248V46.4264H163.989V62.3629H159.991Z" fill="black"/>
<path d="M143.05 62.7765C137.563 62.7765 133.951 58.751 133.951 52.6301C133.951 46.5367 137.563 42.5112 143.05 42.5112C147.379 42.5112 150.632 45.0478 151.156 48.6873L147.158 49.6248C146.717 47.3914 145.173 46.068 142.995 46.068C139.962 46.068 138.059 48.577 138.059 52.6301C138.059 56.6831 139.962 59.2197 142.995 59.2197C145.173 59.2197 146.717 57.8963 147.158 55.6906L151.156 56.628C150.632 60.2675 147.379 62.7765 143.05 62.7765Z" fill="black"/>
<path d="M116.918 62.3629V42.9248H130.401V46.3161H120.916V50.7276H129.711V54.0087H120.916V58.9716H130.401V62.3629H116.918Z" fill="black"/>
<path d="M95.5332 62.3629V42.9248H99.9171L105.845 52.8231C106.755 54.312 107.362 55.5803 108.023 56.9864H108.161L108.078 52.0235V42.9248H111.883V62.3629H107.499L101.544 52.4646C100.662 50.9758 100.055 49.735 99.3657 48.3013H99.2554L99.3381 53.2642V62.3629H95.5332Z" fill="black"/>
<path d="M74.1465 62.3629V42.9248H78.5304L84.4583 52.8231C85.3682 54.312 85.9748 55.5803 86.6365 56.9864H86.7744L86.6917 52.0235V42.9248H90.4966V62.3629H86.1126L80.1571 52.4646C79.2748 50.9758 78.6683 49.735 77.979 48.3013H77.8687L77.9514 53.2642V62.3629H74.1465Z" fill="black"/>
<path d="M60.5825 62.7765C54.9303 62.7765 51.3184 58.6407 51.3184 52.6301C51.3184 46.647 54.9303 42.5112 60.5825 42.5112C66.2347 42.5112 69.8466 46.647 69.8466 52.6301C69.8466 58.6407 66.2347 62.7765 60.5825 62.7765ZM60.5825 59.2197C63.6981 59.2197 65.7384 56.8761 65.7384 52.6301C65.7384 48.384 63.6981 46.068 60.5825 46.068C57.4669 46.068 55.4266 48.384 55.4266 52.6301C55.4266 56.8761 57.4669 59.2197 60.5825 59.2197Z" fill="black"/>
<path d="M39.9737 62.7765C34.4869 62.7765 30.875 58.751 30.875 52.6301C30.875 46.5367 34.4869 42.5112 39.9737 42.5112C44.3025 42.5112 47.5559 45.0478 48.0798 48.6873L44.0819 49.6248C43.6407 47.3914 42.0967 46.068 39.9186 46.068C36.8857 46.068 34.9832 48.577 34.9832 52.6301C34.9832 56.6831 36.8857 59.2197 39.9186 59.2197C42.0967 59.2197 43.6407 57.8963 44.0819 55.6906L48.0798 56.628C47.5559 60.2675 44.3025 62.7765 39.9737 62.7765Z" fill="black"/>
</svg>
